<svg width="90" height="37" viewBox="0 0 90 37" fill="none" xmlns="http://www.w3.org/2000/svg">
<g id="Logo">
<path id="Union" fill-rule="evenodd" clip-rule="evenodd" d="M21.0611 29.4442H27.2281L16.2314 0.466553H11.1789L0.219421 29.4442H6.38646L8.72697 23.0171H18.6834L21.0611 29.4442ZM16.7144 17.5931H10.696L13.7052 9.38276L16.7144 17.5931ZM48.0245 15.0297C47.4672 13.7666 46.7242 12.652 45.7583 11.649C44.7552 10.683 43.6407 9.94001 42.3775 9.38275C41.0773 8.82549 39.7027 8.56543 38.2538 8.56543C36.8421 8.56543 35.4303 8.82549 34.1301 9.38275C32.8669 9.94001 31.7524 10.683 30.7493 11.649C29.7834 12.6149 29.0404 13.7666 28.4831 15.0297C27.963 16.33 27.6658 17.7045 27.6658 19.1534V34.9425L33.2384 36.8001V28.4783C33.5356 28.6269 33.8328 28.7755 34.1301 28.887C35.4303 29.4442 36.8421 29.7414 38.2538 29.7414C39.6655 29.7414 41.0773 29.4442 42.3775 28.887C43.6407 28.3668 44.7552 27.6238 45.7583 26.6208C46.7242 25.6548 47.4672 24.5403 48.0245 23.2772C48.5817 21.9769 48.8418 20.5652 48.8418 19.1534C48.8418 17.7045 48.5817 16.33 48.0245 15.0297ZM38.2538 24.1688C35.5046 24.1688 33.2384 21.9026 33.2384 19.1534C33.2384 16.4043 35.5046 14.1381 38.2538 14.1381C41.003 14.1381 43.2692 16.4043 43.2692 19.1534C43.2692 21.9026 41.003 24.1688 38.2538 24.1688ZM63.6011 28.7012C62.2637 29.2956 60.852 29.5929 59.4031 29.5929C56.5796 29.5929 53.9791 28.4783 51.9729 26.5093C50.0039 24.5403 48.9265 21.9026 48.9265 19.1163C48.9265 16.33 50.0039 13.6923 51.9729 11.7233C53.9791 9.75429 56.5796 8.63976 59.4031 8.63976C62.1894 8.63976 64.8271 9.75429 66.7961 11.7233C68.7651 13.6923 69.8425 16.33 69.8425 19.1163V21.8283H55.0936C55.9852 23.2401 57.5827 24.206 59.4031 24.206C60.8148 24.206 62.1151 23.6487 63.081 22.6085L67.019 26.3236C66.0531 27.3267 64.9014 28.144 63.6011 28.7012ZM59.4031 14.0266C57.5827 14.0266 55.9852 14.9926 55.0936 16.4414H63.7126C62.7838 14.9926 61.1863 14.0266 59.4031 14.0266Z" fill="#FB8E0B"/>
<path id="path64124" d="M82.483 29.4443H89.0959L81.5543 19.042L89.0216 8.75122H82.2973L78.1735 14.5096L74.1241 8.75122H67.2883L74.83 19.0049L67.3255 29.4443H73.9012L78.2107 23.723L82.483 29.4443Z" fill="#FD6003"/>
</g>
</svg>
